<svg
    xmlns="http://www.w3.org/2000/svg"
    viewBox="0 0 2360 880"
    id="hex_edited_white">
    <g
        id="group"
        transform="translate(0 -190)">
        <path
            id="path"
            d="M 1120.19 874.649 Q 1116.26 880.938 1116.26 884.449 Q 1116.26 892.033 1123.06 896.098 C 1127.688 898.837 1132.983 900.245 1138.36 900.166 Q 1153.24 900.166 1162.59 890.273 Q 1171.94 880.38 1171.94 868.173 Q 1171.94 857.634 1163.44 848.758 Q 1154.94 839.882 1140.49 834.889 C 1130.356 831.481 1119.722 829.793 1109.03 829.897 Q 1075.67 829.897 1055.05 847.278 Q 1034.43 864.659 1034.43 894.616 C 1034.285 904.074 1036.321 913.439 1040.38 921.983 C 1044.183 929.916 1049.789 936.85 1056.75 942.23 C 1064.116 947.811 1072.435 952.009 1081.3 954.619 C 1091.262 957.594 1101.614 959.059 1112.01 958.965 C 1120.092 959.002 1128.139 957.913 1135.92 955.729 C 1142.621 953.953 1149.028 951.213 1154.94 947.593 C 1159.79 944.53 1164.282 940.933 1168.33 936.868 C 1171.662 933.64 1174.493 929.932 1176.73 925.868 C 1178.308 923.096 1179.216 919.993 1179.38 916.807 Q 1179.38 913.297 1175.98 910.058 C 1174.914 909.014 1173.653 908.19 1172.268 907.635 C 1170.883 907.079 1169.402 906.803 1167.91 906.822 C 1164.929 906.996 1162.04 907.918 1159.51 909.503 C 1156.317 911.294 1153.232 913.269 1150.27 915.42 C 1146.654 917.904 1142.723 919.894 1138.58 921.337 C 1133.751 923.127 1128.64 924.036 1123.49 924.019 C 1116.955 924.159 1110.498 922.564 1104.78 919.396 C 1099.568 916.491 1095.291 912.161 1092.45 906.914 C 1089.57 901.479 1088.108 895.405 1088.2 889.255 C 1088.083 881.159 1090.378 873.208 1094.79 866.419 Q 1101.375 856.342 1111.58 856.341 C 1114.745 856.267 1117.847 857.242 1120.4 859.115 Q 1124.12 861.889 1124.12 865.771 Q 1124.12 868.365 1120.19 874.649 Z M 1275.45 900.722 Q 1277.79 897.949 1282.46 897.948 C 1284.466 897.911 1286.435 898.492 1288.1 899.612 C 1289.72 900.722 1291.5 901.831 1293.41 902.941 C 1295.737 904.147 1298.341 904.721 1300.96 904.605 Q 1308.82 904.605 1313.71 899.982 C 1315.33 898.44 1316.604 896.57 1317.447 894.498 C 1318.29 892.426 1318.683 890.198 1318.6 887.963 Q 1318.6 869.474 1296.28 869.472 Q 1284.805 869.472 1272.47 877.608 Q 1267.37 869.473 1251.22 869.472 C 1247.239 869.378 1243.296 870.267 1239.74 872.06 C 1236.581 873.687 1233.987 876.233 1232.3 879.36 C 1230.541 882.754 1229.664 886.538 1229.75 890.36 L 1229.75 935.848 Q 1229.75 947.497 1234.22 952.582 Q 1238.69 957.667 1251.22 957.667 Q 1264.82 957.667 1270.14 953.322 Q 1275.46 948.977 1275.45 937.882 L 1275.45 900.722 Z M 1435.71 955.455 C 1441.469 953.691 1446.892 950.972 1451.75 947.412 C 1455.331 944.729 1458.516 941.554 1461.21 937.981 Q 1464.61 933.266 1464.61 929.938 C 1464.629 929.067 1464.458 928.202 1464.11 927.404 C 1463.761 926.606 1463.242 925.893 1462.59 925.315 C 1461.018 924.005 1459.003 923.343 1456.96 923.466 Q 1454.83 923.466 1450.05 925.5 C 1447.203 926.744 1444.251 927.733 1441.23 928.458 C 1435.085 929.79 1428.817 930.472 1422.53 930.492 Q 1414.025 930.492 1408.5 927.072 C 1404.938 924.949 1402.231 921.644 1400.85 917.734 L 1430.82 917.549 C 1434.168 917.565 1437.511 917.286 1440.81 916.717 C 1443.591 916.264 1446.303 915.458 1448.88 914.317 C 1451.012 913.35 1453.042 912.173 1454.94 910.803 C 1456.587 909.636 1458.024 908.198 1459.19 906.55 C 1460.203 905.105 1460.992 903.516 1461.53 901.835 C 1462.024 900.217 1462.274 898.535 1462.27 896.843 Q 1462.27 883.529 1450.69 875.855 Q 1439.11 868.181 1414.24 868.181 Q 1387.885 868.181 1371.2 880.848 Q 1354.515 893.515 1354.51 915.334 Q 1354.51 935.491 1371.41 947.134 Q 1388.31 958.777 1414.24 958.784 C 1421.529 958.84 1428.78 957.716 1435.71 955.455 Z M 1402.55 894.712 C 1403.666 891.783 1405.364 889.109 1407.54 886.853 C 1409.046 885.192 1411.151 884.194 1413.39 884.08 Q 1421.46 884.08 1421.47 895.729 C 1421.567 897.997 1421.203 900.262 1420.4 902.386 Q 1418.915 905.715 1415.73 905.714 Q 1414.455 905.714 1399.79 905.899 C 1400.155 902.055 1401.085 898.285 1402.55 894.712 Z M 1582.36 950.833 Q 1586.815 957.676 1600.85 957.674 Q 1614.23 957.674 1619.55 953.329 Q 1624.87 948.984 1624.86 937.889 L 1624.86 889.812 Q 1624.86 878.163 1618.49 873.812 Q 1612.12 869.461 1600.63 869.467 Q 1587.88 869.467 1582.14 878.712 C 1572.922 871.869 1561.741 868.172 1550.26 868.172 Q 1533.25 868.172 1522.31 880.654 Q 1511.37 893.136 1511.37 914.215 Q 1511.37 934.927 1522.42 946.852 Q 1533.47 958.777 1550.26 958.779 Q 1568.755 958.779 1582.36 950.828 Z M 1579.17 931.047 C 1578.121 932.614 1576.694 933.893 1575.022 934.765 C 1573.35 935.637 1571.486 936.076 1569.6 936.04 Q 1563.87 936.04 1560.68 929.383 C 1558.485 924.635 1557.394 919.45 1557.49 914.22 C 1557.383 908.669 1558.546 903.166 1560.89 898.133 Q 1564.28 891.109 1569.82 891.106 Q 1575.55 891.106 1579.17 896.469 L 1579.17 931.047 Z M 1694.15 948.429 Q 1702.865 957.677 1723.91 957.674 C 1729.73 957.761 1735.498 956.561 1740.8 954.161 C 1745.374 952.167 1749.416 949.126 1752.6 945.285 C 1755.305 941.934 1757.49 938.194 1759.08 934.191 C 1760.487 930.786 1761.246 927.149 1761.32 923.466 C 1761.313 922.481 1761.067 921.512 1760.604 920.642 C 1760.141 919.773 1759.474 919.029 1758.66 918.473 C 1756.88 917.118 1754.37 916.439 1751.11 916.439 C 1750.416 916.438 1749.729 916.576 1749.09 916.846 C 1748.451 917.116 1747.873 917.513 1747.39 918.011 C 1746.35 919.032 1745.488 920.219 1744.84 921.524 C 1744.184 922.85 1743.285 924.042 1742.19 925.038 C 1741.032 926.094 1739.506 926.658 1737.94 926.609 C 1736.97 926.633 1736.002 926.509 1735.07 926.239 C 1734.297 926.002 1733.647 925.47 1733.26 924.76 C 1732.765 923.807 1732.44 922.774 1732.3 921.709 C 1732.066 920.087 1731.959 918.448 1731.98 916.809 L 1731.98 896.469 L 1735.81 896.469 C 1739.146 896.501 1742.481 896.346 1745.8 896.006 C 1748.16 895.775 1750.482 895.247 1752.71 894.435 C 1754.397 893.869 1755.852 892.764 1756.85 891.291 C 1757.743 889.783 1758.187 888.051 1758.13 886.299 Q 1758.13 879.273 1753.77 876.591 Q 1749.41 873.909 1737.72 873.91 L 1731.98 873.91 L 1731.77 852.645 Q 1731.77 845.619 1729.65 842.105 Q 1727.53 838.591 1720.51 838.592 C 1712.459 838.687 1704.534 840.616 1697.34 844.231 Q 1685.655 849.874 1685.65 856.898 L 1685.65 874.098 Q 1670.98 875.026 1670.98 885.563 C 1670.907 887.506 1671.389 889.431 1672.37 891.11 C 1673.488 892.752 1675.083 894.011 1676.94 894.716 C 1679.653 895.758 1682.534 896.291 1685.44 896.288 L 1685.44 918.1 Q 1685.44 939.184 1694.15 948.429 Z M 1872.9 930.492 Q 1870.14 937.523 1864.61 937.519 Q 1859.08 937.515 1856.11 930.4 C 1854.025 925.137 1853.012 919.51 1853.13 913.85 C 1853.108 909.992 1853.538 906.144 1854.41 902.386 C 1855.118 899.12 1856.494 896.035 1858.45 893.325 Q 1861.21 889.625 1864.82 889.625 Q 1870.13 889.625 1872.9 896.925 C 1874.834 902.352 1875.769 908.084 1875.66 913.844 C 1875.788 919.517 1874.852 925.164 1872.9 930.492 Z M 1906.59 946.95 Q 1923.27 934.932 1923.27 914.035 Q 1923.27 892.956 1906.91 880.566 Q 1890.53 868.18 1864.61 868.177 Q 1838.69 868.174 1822.1 880.566 Q 1805.525 892.957 1805.52 914.035 C 1805.356 922.778 1808.167 931.322 1813.49 938.259 C 1819 945.306 1826.361 950.685 1834.75 953.791 C 1844.293 957.366 1854.421 959.122 1864.61 958.969 Q 1889.9 958.969 1906.59 946.95 Z M 2016.79 900.722 Q 2019.13 897.949 2023.8 897.948 C 2025.806 897.911 2027.775 898.492 2029.44 899.612 C 2031.06 900.722 2032.84 901.831 2034.75 902.941 C 2037.074 904.146 2039.675 904.72 2042.29 904.605 Q 2050.165 904.605 2055.05 899.982 C 2056.67 898.44 2057.944 896.57 2058.787 894.498 C 2059.63 892.426 2060.023 890.198 2059.94 887.963 Q 2059.94 869.474 2037.62 869.472 Q 2026.145 869.472 2013.81 877.608 Q 2008.71 869.473 1992.56 869.472 C 1988.579 869.378 1984.636 870.267 1981.08 872.06 C 1977.921 873.687 1975.327 876.233 1973.64 879.36 C 1971.881 882.754 1971.004 886.538 1971.09 890.36 L 1971.09 935.848 Q 1971.09 947.497 1975.56 952.582 Q 1980.015 957.67 1992.56 957.667 Q 2006.165 957.667 2011.48 953.322 Q 2016.795 948.977 2016.79 937.882 L 2016.79 900.722 Z M 2114.66 876.406 Q 2100.53 884.637 2100.53 897.578 C 2100.386 902.146 2101.689 906.645 2104.25 910.43 Q 2107.95 915.699 2117.32 919.213 C 2122.343 921.81 2127.71 923.677 2133.26 924.76 Q 2143.25 926.979 2149.41 928.551 Q 2155.57 930.123 2155.58 932.711 Q 2155.58 937.704 2143.89 937.704 C 2137.513 937.55 2131.228 936.136 2125.4 933.543 Q 2115.395 929.383 2110.52 929.383 Q 2105.645 929.383 2102.97 931.417 C 2102.112 932.058 2101.423 932.898 2100.961 933.864 C 2100.5 934.83 2100.28 935.894 2100.32 936.964 Q 2100.32 942.698 2106.9 948.059 Q 2120.5 958.971 2147.92 958.969 C 2156.324 959.073 2164.71 958.173 2172.9 956.288 Q 2183.835 953.609 2190.22 949.261 C 2193.986 946.841 2197.236 943.698 2199.78 940.015 C 2201.796 937.105 2202.906 933.662 2202.97 930.123 Q 2202.97 919.955 2197.02 913.758 Q 2191.07 907.561 2175.13 902.2 C 2171.093 900.587 2166.937 899.289 2162.7 898.317 C 2158.459 897.349 2154.299 896.05 2150.26 894.434 Q 2146.015 892.588 2146.01 889.441 Q 2146.01 885.004 2154.3 885.003 C 2158.271 884.983 2162.219 885.607 2165.99 886.852 C 2169.124 887.832 2172.124 889.199 2174.92 890.92 C 2177.248 892.439 2179.659 893.828 2182.14 895.081 C 2184.295 896.269 2186.7 896.934 2189.16 897.022 C 2191.327 897.107 2193.449 896.381 2195.11 894.988 C 2195.804 894.468 2196.374 893.8 2196.779 893.033 C 2197.184 892.265 2197.413 891.418 2197.45 890.551 Q 2197.45 882.229 2184.27 875.203 Q 2171.09 868.177 2151.33 868.176 Q 2128.785 868.177 2114.66 876.406 Z"
            fill="#ffffff"
            stroke-width="1"
            fill-rule="evenodd"/>
        <path
            id="path_1"
            d="M 389.116 975.388 Q 303.672 925.274 216.541 878.147 Q 129.41 831.02 130.111 732 Q 130.811 632.983 128.08 534 Q 125.349 435.017 211.493 386.115 Q 297.638 337.215 382.036 285.357 Q 466.434 233.499 551.88 283.62 Q 637.324 333.735 724.455 380.862 Q 811.586 427.989 810.885 527.005 Q 810.185 626.023 812.916 725.005 Q 815.647 823.987 729.5 872.889 Q 643.355 921.789 558.957 973.647 Q 474.559 1025.505 389.116 975.388 Z"
            fill="none"
            stroke="#ffffff"
            stroke-width="105.65"/>
        <path
            id="path_2"
            d="M 421.279 841.458 Q 369.179 810.903 316.042 782.169 Q 262.905 753.435 263.336 693.063 Q 263.762 632.691 262.097 572.341 Q 260.432 511.991 312.963 482.174 Q 365.494 452.357 416.963 420.741 Q 468.432 389.125 520.535 419.679 Q 572.641 450.236 625.773 478.968 Q 678.905 507.7 678.479 568.074 Q 678.052 628.446 679.717 688.796 Q 681.382 749.146 628.85 778.963 Q 576.318 808.78 524.85 840.397 Q 473.382 872.014 421.279 841.458 Z"
            fill="#ffffff"
            stroke-width="1"
            fill-rule="evenodd"/>
        <path
            id="path_3"
            d="M 594.53 556.59 Q 594.53 534.885 583.542 527.751 Q 572.554 520.617 550.952 520.622 Q 538.284 520.622 529.163 524.349 C 522.998 526.9 517.786 531.32 514.263 536.986 Q 508.485 545.902 508.49 559.506 L 508.49 611.027 L 432.882 611.027 L 432.882 556.59 Q 432.882 534.885 422.267 527.751 Q 411.652 520.617 389.3 520.622 Q 369.929 520.622 358.2 530.022 Q 346.471 539.422 346.467 559.509 L 347.584 696.25 Q 347.584 722.178 357.641 732.38 Q 367.698 742.582 389.3 742.584 Q 412.015 742.584 422.449 731.567 Q 432.883 720.55 432.878 693.979 L 432.878 659.632 L 508.86 659.632 L 509.232 696.247 Q 509.232 722.175 519.289 732.377 Q 529.346 742.579 550.948 742.584 Q 572.92 742.584 583.724 731.405 Q 594.528 720.226 594.524 693.979 L 594.524 556.59 Z"
            fill="#001266"
            stroke-width="1"
            fill-rule="evenodd"/>
        <path
            id="path_4"
            d="M 1356.99 442.112 Q 1356.99 409.1 1340.28 398.251 Q 1323.57 387.402 1290.71 387.409 Q 1271.45 387.409 1257.58 393.076 C 1248.204 396.956 1240.277 403.679 1234.92 412.296 Q 1226.13 425.856 1226.14 446.547 L 1226.14 524.905 L 1111.15 524.905 L 1111.15 442.112 Q 1111.15 409.1 1095 398.251 Q 1078.85 387.402 1044.87 387.409 Q 1015.41 387.409 997.57 401.701 Q 979.73 415.993 979.727 446.547 L 981.427 654.517 Q 981.427 693.949 996.722 709.466 Q 1012.017 724.983 1044.87 724.99 Q 1079.415 724.99 1095.29 708.234 Q 1111.13 691.485 1111.15 651.067 L 1111.15 598.828 L 1226.7 598.828 L 1227.27 654.517 Q 1227.27 693.949 1242.56 709.466 Q 1257.85 724.983 1290.71 724.99 Q 1324.13 724.99 1340.56 707.99 Q 1356.99 690.99 1356.99 651.07 L 1356.99 442.112 Z M 1604.53 524.905 L 1604.53 467.245 L 1728.02 467.245 Q 1759.73 467.245 1773.62 458.621 Q 1787.51 449.997 1787.5 428.313 Q 1787.5 405.155 1771.35 396.28 Q 1755.2 387.405 1722.35 387.409 L 1538.82 387.409 Q 1474.245 387.409 1474.25 446.547 L 1474.25 654.517 Q 1474.25 693.949 1489.82 709.466 Q 1505.405 724.99 1538.82 724.99 L 1722.35 724.99 Q 1755.2 724.99 1771.35 715.626 Q 1787.5 706.262 1787.5 682.607 Q 1787.5 661.907 1773.62 653.777 Q 1759.74 645.647 1728.02 645.646 L 1605.1 645.153 L 1605.1 592.914 L 1696.86 592.914 Q 1727.46 592.914 1741.9 585.768 Q 1756.34 578.622 1756.34 561.868 Q 1756.34 541.668 1744.16 533.284 Q 1731.98 524.9 1701.96 524.906 L 1604.53 524.906 Z M 1925.71 616.077 Q 1892.845 647.62 1892.86 667.823 Q 1892.86 686.558 1916.08 706.755 Q 1937.035 724.994 1960.26 724.99 Q 1995.39 724.99 2022.01 694.928 L 2082.05 623.469 L 2155.13 706.263 Q 2173.25 725.483 2198.74 725.482 Q 2219.14 725.482 2245.19 704.782 Q 2268.98 686.556 2268.98 661.907 Q 2268.98 644.165 2245.19 621.007 L 2168.72 551.519 L 2235.56 496.319 Q 2268.98 466.265 2268.98 444.573 Q 2268.98 425.85 2245.76 405.147 Q 2225.36 387.903 2201.58 387.899 Q 2167.02 387.899 2139.27 417.468 L 2079.22 487.448 L 2006.71 406.626 Q 1988.02 387.405 1963.1 387.406 Q 1942.7 387.406 1916.65 407.606 Q 1892.86 426.341 1892.86 450.482 Q 1892.86 470.198 1916.08 491.882 L 1993.69 557.427 Z"
            fill="#ffffff"
            stroke-width="1"
            fill-rule="evenodd"/>
    </g>
</svg>
