<svg xmlns="http://www.w3.org/2000/svg" xmlns:xlink="http://www.w3.org/1999/xlink" width="157.333" height="156.875" viewBox="0 0 157.333 156.875"><defs><style>.a{fill:url(#a);}.b,.o{fill:#2626bc;}.b{opacity:0.1;}.c{fill:#fff;}.d{fill:#ffdbed;}.e{fill:#ff7eb8;}.f{fill:#ff5ba8;}.g{fill:#02ffb3;}.h{fill:#9fb0fe;}.i{fill:#8399fe;}.j{fill:#6583fe;}.k{fill:#4369fd;}.l{fill:#97ffd2;}.m{fill:#01eca5;}.n{fill:#00d890;}</style><linearGradient id="a" y1="0.5" x2="1" y2="0.5" gradientUnits="objectBoundingBox"><stop offset="0" stop-color="#ffdbed" stop-opacity="0"/><stop offset="1" stop-color="#ffdbed"/></linearGradient></defs><path class="a" d="M138.833,14.026C89.5-16.048,12.687,11.38,3.75,33.062-8.206,62.069,11.917,67.027,15.655,90.794c3,19.071-15.728,37.334-5.038,54.17,11.641,18.334,50.231,13.73,64.9,5.054,26.85-15.882,13.308-34.42,26.023-57.555C113.649,70.428,137.26,79.365,151,61.737c13.06-16.754,4.4-37.613-12.168-47.711Z" transform="translate(0.001 -0.746)"/><g transform="translate(8.37 6.312)"><g transform="translate(2.855 17.694)"><g transform="translate(1.537 1.536)"><path class="b" d="M168.73,107.867H46.139a4.609,4.609,0,0,0-4.609,4.609v96.571a4.609,4.609,0,0,0,4.609,4.609h5.252v7.359a3.073,3.073,0,0,0,3.073,3.073H99.2a3.073,3.073,0,0,0,3.073-3.073v-7.359H112.6v7.359a3.073,3.073,0,0,0,3.073,3.073H160.4a3.073,3.073,0,0,0,3.073-3.073v-7.359h5.252a4.609,4.609,0,0,0,4.609-4.609V112.476A4.609,4.609,0,0,0,168.73,107.867Z" transform="translate(-41.53 -100.492)"/><path class="c" d="M168.73,189.657H46.139a4.609,4.609,0,0,1-4.609-4.609V88.476a4.609,4.609,0,0,1,4.609-4.609H168.73a4.609,4.609,0,0,1,4.609,4.609v96.571A4.609,4.609,0,0,1,168.73,189.657Z" transform="translate(-41.53 -83.867)"/><circle class="d" cx="13.608" cy="13.608" r="13.608" transform="translate(52.297 69.871)"/><path class="e" d="M173.339,105.166V88.476a4.609,4.609,0,0,0-4.609-4.609H46.139a4.609,4.609,0,0,0-4.609,4.609v16.69Z" transform="translate(-41.53 -83.867)"/><g transform="translate(10.2 6.453)"><g transform="translate(0 1.537)"><circle class="f" cx="3.35" cy="3.35" r="3.35"/><circle class="c" cx="3.35" cy="3.35" r="3.35" transform="translate(10.694)"/><circle class="g" cx="3.35" cy="3.35" r="3.35" transform="translate(21.388)"/></g><path class="d" d="M337.959,116.047h-41.84V108.52h41.84a1.537,1.537,0,0,1,1.536,1.536v4.454a1.537,1.537,0,0,1-1.537,1.536Z" transform="translate(-228.086 -107.397)"/><path class="c" d="M280.761,106.085a4.166,4.166,0,1,0-1.3,6.768l1.336,1.336a1.536,1.536,0,0,0,2.173-2.173l-1.336-1.336A4.17,4.17,0,0,0,280.761,106.085Zm-3.719,2.173a1.093,1.093,0,1,1,0,1.546A1.094,1.094,0,0,1,277.043,108.258Z" transform="translate(-212.522 -104.867)"/></g></g><g transform="translate(11.398 32.909)"><path class="h" d="M124.5,189.033v78.7a3.074,3.074,0,0,1-3.073,3.073H76.693a3.074,3.074,0,0,1-3.073-3.073v-78.7a3.074,3.074,0,0,1,3.073-3.073h44.735A3.074,3.074,0,0,1,124.5,189.033Z" transform="translate(-73.62 -185.96)"/><path class="i" d="M220.164,314.54v25.189a13.614,13.614,0,0,1,0-25.189Z" transform="translate(-169.283 -275.029)"/><path class="i" d="M124.5,381.02v21.836a3.074,3.074,0,0,1-3.073,3.073H76.693a3.074,3.074,0,0,1-3.073-3.073V381.02Z" transform="translate(-73.62 -321.08)"/><g transform="translate(0.001 0.001)"><path class="j" d="M225.755,381.02v4.76a13.635,13.635,0,0,1-5.965-4.76Z" transform="translate(-174.874 -321.08)"/><path class="j" d="M124.5,195.646H73.622v-6.611a3.073,3.073,0,0,1,3.073-3.073H121.43a3.073,3.073,0,0,1,3.073,3.073Z" transform="translate(-73.622 -185.962)"/></g><g transform="translate(15.101 19.679)"><circle class="g" cx="10.341" cy="10.341" r="10.341"/><path class="c" d="M150.009,273.283a5.106,5.106,0,1,0-8.752,3.571,5.085,5.085,0,0,0-1.46,3.568v1.506a10.3,10.3,0,0,0,3.073,1.146v-2.652a2.033,2.033,0,0,1,4.065,0v2.652a10.3,10.3,0,0,0,3.073-1.146v-1.506a5.075,5.075,0,0,0-1.463-3.568A5.088,5.088,0,0,0,150.009,273.283Zm-5.107,2.034a2.033,2.033,0,1,1,2.034-2.034A2.036,2.036,0,0,1,144.9,275.317Z" transform="translate(-134.563 -262.593)"/></g><g transform="translate(14.735 13.025)"><g transform="translate(0 32.864)"><path class="k" d="M141.447,338.366H123.107a1.536,1.536,0,0,1,0-3.073h18.339a1.536,1.536,0,0,1,0,3.073Z" transform="translate(-121.571 -335.293)"/></g><g transform="translate(0 52.452)"><path class="c" d="M141.447,402.108H123.107a1.536,1.536,0,1,1,0-3.073h18.339a1.536,1.536,0,1,1,0,3.073Z" transform="translate(-121.571 -399.035)"/></g><g transform="translate(0 58.32)"><path class="c" d="M141.447,421.206H123.107a1.536,1.536,0,0,1,0-3.073h18.339a1.536,1.536,0,0,1,0,3.073Z" transform="translate(-121.571 -418.133)"/></g><g transform="translate(0 38.229)"><path class="k" d="M129.463,355.823h-6.355a1.536,1.536,0,0,1,0-3.073h6.355a1.536,1.536,0,0,1,0,3.073Z" transform="translate(-121.571 -352.75)"/></g><g transform="translate(23.647)"><path class="c" d="M203.65,231.418H200.06a1.536,1.536,0,0,1,0-3.073h3.589a1.536,1.536,0,0,1,0,3.073Z" transform="translate(-198.524 -228.345)"/><g transform="translate(0 4.759)"><path class="c" d="M203.65,246.9H200.06a1.536,1.536,0,1,1,0-3.073h3.589a1.536,1.536,0,1,1,0,3.073Z" transform="translate(-198.524 -243.831)"/></g></g></g><g transform="translate(6.084 13.024)"><circle class="c" cx="1.537" cy="1.537" r="1.537"/></g><g transform="translate(61.206)"><path class="l" d="M323.681,189.033v78.7a3.074,3.074,0,0,1-3.073,3.073H275.873a3.074,3.074,0,0,1-3.073-3.073v-78.7a3.074,3.074,0,0,1,3.073-3.073h44.735A3.074,3.074,0,0,1,323.681,189.033Z" transform="translate(-272.8 -185.96)"/><path class="g" d="M281.244,327.136a13.605,13.605,0,0,1-8.444,12.593V314.54A13.612,13.612,0,0,1,281.244,327.136Z" transform="translate(-272.8 -275.029)"/><path class="m" d="M323.681,381.02v21.836a3.074,3.074,0,0,1-3.073,3.073H275.873a3.074,3.074,0,0,1-3.073-3.073V381.02Z" transform="translate(-272.8 -321.08)"/><path class="n" d="M278.765,381.02a13.635,13.635,0,0,1-5.965,4.76v-4.76Z" transform="translate(-272.8 -321.08)"/><path class="m" d="M323.68,195.646H272.8v-6.611a3.073,3.073,0,0,1,3.073-3.073h44.735a3.073,3.073,0,0,1,3.073,3.073Z" transform="translate(-272.799 -185.961)"/><g transform="translate(15.1 19.679)"><circle class="e" cx="10.341" cy="10.341" r="10.341"/><path class="c" d="M349.186,273.283a5.106,5.106,0,1,0-8.752,3.571,5.085,5.085,0,0,0-1.46,3.568v1.506a10.3,10.3,0,0,0,3.073,1.146v-2.652a2.033,2.033,0,0,1,4.065,0v2.652a10.3,10.3,0,0,0,3.073-1.146v-1.506a5.075,5.075,0,0,0-1.463-3.568A5.088,5.088,0,0,0,349.186,273.283Zm-5.107,2.034a2.033,2.033,0,1,1,2.034-2.034A2.036,2.036,0,0,1,344.079,275.317Z" transform="translate(-333.739 -262.593)"/></g><g transform="translate(14.734 13.025)"><g transform="translate(0 32.864)"><path class="e" d="M340.624,338.366H322.284a1.536,1.536,0,0,1,0-3.073h18.339a1.536,1.536,0,1,1,0,3.073Z" transform="translate(-320.748 -335.293)"/></g><g transform="translate(0 52.452)"><path class="c" d="M340.624,402.108H322.284a1.536,1.536,0,1,1,0-3.073h18.339a1.536,1.536,0,1,1,0,3.073Z" transform="translate(-320.748 -399.035)"/></g><g transform="translate(0 58.32)"><path class="c" d="M340.624,421.206H322.284a1.536,1.536,0,1,1,0-3.073h18.339a1.536,1.536,0,1,1,0,3.073Z" transform="translate(-320.748 -418.133)"/></g><g transform="translate(0 38.229)"><path class="e" d="M328.64,355.823h-6.355a1.536,1.536,0,0,1,0-3.073h6.355a1.536,1.536,0,0,1,0,3.073Z" transform="translate(-320.748 -352.75)"/></g><g transform="translate(23.647)"><path class="c" d="M402.827,231.418h-3.589a1.536,1.536,0,1,1,0-3.073h3.589a1.536,1.536,0,0,1,0,3.073Z" transform="translate(-397.701 -228.345)"/><g transform="translate(0 4.759)"><path class="c" d="M402.827,246.9h-3.589a1.536,1.536,0,1,1,0-3.073h3.589a1.536,1.536,0,0,1,0,3.073Z" transform="translate(-397.701 -243.831)"/></g></g></g><g transform="translate(6.083 13.024)"><circle class="c" cx="1.537" cy="1.537" r="1.537"/></g></g></g><circle class="e" cx="13.608" cy="13.608" r="13.608" transform="translate(53.833 64.032)"/><path class="o" d="M165.266,78.867H42.675a6.153,6.153,0,0,0-6.146,6.146v96.571a6.153,6.153,0,0,0,6.146,6.146h3.716v5.823A4.615,4.615,0,0,0,51,198.162H95.735a4.615,4.615,0,0,0,4.609-4.609V187.73H107.6v5.823a4.615,4.615,0,0,0,4.609,4.609h44.735a4.615,4.615,0,0,0,4.609-4.609V187.73h3.716a6.153,6.153,0,0,0,6.146-6.146V85.013a6.153,6.153,0,0,0-6.146-6.146ZM95.735,195.089H51a1.538,1.538,0,0,1-1.536-1.536v-78.7A1.538,1.538,0,0,1,51,113.313H95.735a1.538,1.538,0,0,1,1.536,1.536V142.93a15.137,15.137,0,0,0,0,27.156v23.467A1.538,1.538,0,0,1,95.735,195.089Zm20.307-38.582a12.072,12.072,0,1,1-12.072-12.072A12.085,12.085,0,0,1,116.042,156.508Zm-15.7,28.149V171.21a15.1,15.1,0,0,0,7.251,0v13.447Zm58.132,8.9a1.538,1.538,0,0,1-1.536,1.536H112.206a1.538,1.538,0,0,1-1.536-1.536V170.085a15.137,15.137,0,0,0,0-27.156V114.849a1.538,1.538,0,0,1,1.536-1.536h44.735a1.538,1.538,0,0,1,1.536,1.536Zm9.862-11.969a3.076,3.076,0,0,1-3.073,3.073H161.55V114.849a4.615,4.615,0,0,0-4.609-4.609H112.206a4.615,4.615,0,0,0-4.609,4.609V141.8a15.1,15.1,0,0,0-7.251,0V114.849a4.615,4.615,0,0,0-4.609-4.609H51a4.615,4.615,0,0,0-4.609,4.609v69.808H42.675a3.076,3.076,0,0,1-3.073-3.073V85.013a3.076,3.076,0,0,1,3.073-3.073H165.266a3.076,3.076,0,0,1,3.073,3.073v96.571Z" transform="translate(-36.529 -78.867)"/><g transform="translate(61.773 69.415)"><path class="c" d="M247.353,311.966h-8.265A1.536,1.536,0,0,1,238,309.343l4.132-4.132a1.536,1.536,0,1,1,2.173,2.173l-1.509,1.509h4.555a1.536,1.536,0,0,1,0,3.073Z" transform="translate(-237.552 -304.761)"/><g transform="translate(0 9.245)"><path class="c" d="M243.222,342.053a1.536,1.536,0,0,1-1.086-2.623l1.509-1.509h-4.555a1.536,1.536,0,0,1,0-3.073h8.265a1.536,1.536,0,0,1,1.086,2.623l-4.132,4.132a1.532,1.532,0,0,1-1.087.45Z" transform="translate(-237.553 -334.848)"/></g></g></g><path class="m" d="M319.238,40.412a1.536,1.536,0,0,1-1.536-1.536,1.846,1.846,0,0,0-1.844-1.844,1.536,1.536,0,1,1,0-3.073,1.846,1.846,0,0,0,1.844-1.844,1.536,1.536,0,1,1,3.073,0,1.846,1.846,0,0,0,1.843,1.844,1.536,1.536,0,1,1,0,3.073,1.846,1.846,0,0,0-1.843,1.844A1.536,1.536,0,0,1,319.238,40.412Z" transform="translate(-226.103 -27.724)"/><path class="j" d="M273.747,30.07a4.392,4.392,0,1,1,4.391-4.392A4.4,4.4,0,0,1,273.747,30.07Zm0-5.71a1.319,1.319,0,1,0,1.319,1.319A1.321,1.321,0,0,0,273.747,24.36Z" transform="translate(-194.955 -21.287)"/><path class="f" d="M31.629,456.573a4.392,4.392,0,1,1,4.392-4.392A4.4,4.4,0,0,1,31.629,456.573Zm0-5.71a1.319,1.319,0,1,0,1.319,1.319A1.32,1.32,0,0,0,31.629,450.863Z" transform="translate(-27.238 -316.729)"/><g transform="translate(57.761 2.855)"><path class="m" d="M220.122,40.412a1.536,1.536,0,0,1-1.536-1.536,1.846,1.846,0,0,0-1.844-1.844,1.536,1.536,0,1,1,0-3.073,1.846,1.846,0,0,0,1.844-1.844,1.536,1.536,0,1,1,3.073,0,1.846,1.846,0,0,0,1.844,1.844,1.536,1.536,0,0,1,0,3.073,1.846,1.846,0,0,0-1.844,1.844A1.536,1.536,0,0,1,220.122,40.412Z" transform="translate(-215.205 -30.579)"/><path class="m" d="M460.388,468.915a1.536,1.536,0,0,1-1.536-1.536,1.846,1.846,0,0,0-1.844-1.844,1.536,1.536,0,1,1,0-3.073,1.846,1.846,0,0,0,1.844-1.844,1.536,1.536,0,0,1,3.073,0,1.846,1.846,0,0,0,1.844,1.844,1.536,1.536,0,1,1,0,3.073,1.846,1.846,0,0,0-1.844,1.844A1.536,1.536,0,0,1,460.388,468.915Z" transform="translate(-381.639 -327.407)"/></g></g></svg>