<svg xmlns="http://www.w3.org/2000/svg" xmlns:xlink="http://www.w3.org/1999/xlink" width="166.667" height="157.006" viewBox="0 0 166.667 157.006"><defs><style>.a{fill:url(#a);}.b,.i{fill:#2626bc;}.b{opacity:0.1;}.c{fill:#6583fe;}.d{fill:#02ffb3;}.e{fill:#01eca5;}.f{fill:#ffc4df;}.g{fill:#ffa8cf;}.h{fill:#fff;}.j{fill:#b7c5ff;}.k{fill:#ff7eb8;}.l{fill:#9fb0fe;}.m{fill:#ff5ba8;}</style><linearGradient id="a" x1="0.124" y1="0.755" x2="0.906" y2="0.27" gradientUnits="objectBoundingBox"><stop offset="0" stop-color="#dcfdee" stop-opacity="0"/><stop offset="0.629" stop-color="#d2f3e4"/></linearGradient></defs><path class="a" d="M6.62,52.435C-1.181,65.26-2,87.466,3.711,101.347c5.006,12.159,14.963,23.571,28.034,25,4.807.526,9.719-.333,14.477.533,16.36,2.979,22.445,23.141,35.159,33.859,8.848,7.459,21.126,10.1,32.609,8.661s22.234-6.629,31.7-13.289c7.473-5.259,14.465-11.726,18.152-20.087,7.729-17.526-1.364-38.574-15.491-51.51-4.4-4.029-9.3-7.583-12.98-12.281s-6.016-10.968-4.264-16.671c1.4-4.55,5.159-8.077,6.584-12.618,1.939-6.18-.988-13.112-5.795-17.453s-11.168-6.523-17.469-8.021c-26.4-6.276-84.252-3.752-107.8,34.965Z" transform="translate(0 -14.84)"/><g transform="translate(13.876 4.116)"><g transform="translate(27.39 0)"><path class="b" d="M202.883,199.933H141.534a9.765,9.765,0,0,1-9.766-9.766V66.249a9.765,9.765,0,0,1,9.766-9.766h61.349a9.765,9.765,0,0,1,9.766,9.766V190.167A9.766,9.766,0,0,1,202.883,199.933Z" transform="translate(-130.14 -47.043)"/><path class="c" d="M202.883,175.933H141.534a9.765,9.765,0,0,1-9.766-9.766V42.249a9.765,9.765,0,0,1,9.766-9.766h61.349a9.765,9.765,0,0,1,9.766,9.766V166.167A9.766,9.766,0,0,1,202.883,175.933Z" transform="translate(-130.14 -30.855)"/><path class="d" d="M131.77,75.392h80.879V190.906H131.77Z" transform="translate(-130.142 -59.797)"/><path class="e" d="M131.77,75.392h80.879V127.53H131.77Z" transform="translate(-130.142 -59.797)"/><path class="f" d="M131.77,75.392h80.879v45.264H131.77Z" transform="translate(-130.142 -59.797)"/><g transform="translate(1.627 36.254)"><path class="g" d="M151.536,155.278H133.394a1.628,1.628,0,0,1-1.628-1.628V140.483a1.628,1.628,0,0,1,1.628-1.628h18.142a1.628,1.628,0,0,1,1.628,1.628v13.168A1.628,1.628,0,0,1,151.536,155.278Z" transform="translate(-131.766 -138.855)"/><path class="g" d="M334.269,155.278H316.128a1.628,1.628,0,0,1-1.628-1.628V140.483a1.628,1.628,0,0,1,1.628-1.628h18.142a1.628,1.628,0,0,1,1.628,1.628v13.168A1.628,1.628,0,0,1,334.269,155.278Z" transform="translate(-255.016 -138.855)"/></g><path class="g" d="M239.762,138.855h-24a1.628,1.628,0,0,0-1.628,1.628v13.168a1.628,1.628,0,0,0,1.628,1.628H220.2a3.931,3.931,0,0,1,3.506,2.087,4.559,4.559,0,0,0,8.105,0,3.931,3.931,0,0,1,3.506-2.087h4.442a1.628,1.628,0,0,0,1.628-1.628V140.483A1.628,1.628,0,0,0,239.762,138.855Z" transform="translate(-185.694 -102.601)"/><g transform="translate(1.627 30.321)"><path class="h" d="M151.536,137.053H133.394a1.628,1.628,0,0,1-1.628-1.628V122.258a1.628,1.628,0,0,1,1.628-1.628h18.142a1.628,1.628,0,0,1,1.628,1.628v13.168A1.628,1.628,0,0,1,151.536,137.053Z" transform="translate(-131.766 -120.63)"/><path class="h" d="M334.269,137.053H316.128a1.628,1.628,0,0,1-1.628-1.628V122.258a1.628,1.628,0,0,1,1.628-1.628h18.142a1.628,1.628,0,0,1,1.628,1.628v13.168A1.627,1.627,0,0,1,334.269,137.053Z" transform="translate(-255.016 -120.63)"/></g><path class="i" d="M199.51,174.188H138.161a11.406,11.406,0,0,1-11.393-11.393V38.876a11.406,11.406,0,0,1,11.393-11.393H199.51A11.406,11.406,0,0,1,210.9,38.876V162.795A11.406,11.406,0,0,1,199.51,174.188ZM138.161,30.738a8.147,8.147,0,0,0-8.138,8.138V162.795a8.147,8.147,0,0,0,8.138,8.138H199.51a8.147,8.147,0,0,0,8.138-8.138V38.876a8.147,8.147,0,0,0-8.138-8.138Z" transform="translate(-126.768 -27.483)"/><g transform="translate(34.749 7.282)"><path class="j" d="M246.527,53.108H235.145a1.628,1.628,0,0,1,0-3.255h11.382a1.628,1.628,0,0,1,0,3.255Z" transform="translate(-233.517 -49.853)"/></g><circle class="j" cx="1.628" cy="1.628" r="1.628" transform="translate(53.725 7.281)"/><path class="h" d="M217.508,292.5H170.862a6.51,6.51,0,0,1-6.51-6.51V242.914a6.51,6.51,0,0,1,6.51-6.51h46.645a6.51,6.51,0,0,1,6.51,6.51v43.071A6.51,6.51,0,0,1,217.508,292.5Z" transform="translate(-152.118 -168.396)"/><g transform="translate(31.114 56.92)"><circle class="k" cx="10.954" cy="10.954" r="10.954"/><path class="h" d="M250.2,225.928a5.409,5.409,0,1,0-9.271,3.783,5.387,5.387,0,0,0-1.546,3.779v1.6a10.913,10.913,0,0,0,3.255,1.214V233.49a2.153,2.153,0,0,1,4.307,0V236.3a10.911,10.911,0,0,0,3.255-1.214v-1.6a5.376,5.376,0,0,0-1.549-3.779A5.39,5.39,0,0,0,250.2,225.928Zm-5.41,2.155a2.153,2.153,0,1,1,2.155-2.155A2.157,2.157,0,0,1,244.794,228.083Z" transform="translate(-233.841 -214.603)"/></g><g transform="translate(19.496 86.2)"><path class="k" d="M192.09,292.289h-3.8a1.628,1.628,0,0,0,0,3.255h3.8a1.628,1.628,0,1,0,0-3.255Z" transform="translate(-186.66 -292.289)"/><path class="l" d="M230.176,312.561H188.288a1.628,1.628,0,1,0,0,3.255h41.888a1.628,1.628,0,1,0,0-3.255Z" transform="translate(-186.66 -305.962)"/></g><g transform="translate(19.496 103.425)"><path class="k" d="M196.973,345.206h-8.685a1.628,1.628,0,0,0,0,3.255h8.685a1.628,1.628,0,1,0,0-3.255Z" transform="translate(-186.66 -345.206)"/><path class="l" d="M230.176,365.478H188.288a1.628,1.628,0,0,0,0,3.255h41.888a1.628,1.628,0,1,0,0-3.255Z" transform="translate(-186.66 -358.879)"/></g><path class="k" d="M239.762,120.63h-24a1.628,1.628,0,0,0-1.628,1.628v13.168a1.628,1.628,0,0,0,1.628,1.628H220.2a3.931,3.931,0,0,1,3.506,2.087,4.559,4.559,0,0,0,8.105,0,3.931,3.931,0,0,1,3.506-2.087h4.442a1.628,1.628,0,0,0,1.628-1.628V122.258A1.628,1.628,0,0,0,239.762,120.63Z" transform="translate(-185.694 -90.309)"/><path class="c" d="M335.323,93.874h-6.732a1.628,1.628,0,1,0,0,3.255h6.732a1.628,1.628,0,0,0,0-3.255Z" transform="translate(-261.795 -72.262)"/></g><path class="m" d="M64.279,388.822a4.652,4.652,0,1,1,4.652-4.652A4.658,4.658,0,0,1,64.279,388.822Zm0-6.049a1.4,1.4,0,1,0,1.4,1.4A1.4,1.4,0,0,0,64.279,382.773Z" transform="translate(-54.093 -264.923)"/><path class="e" d="M429,153.38a1.628,1.628,0,0,1-1.628-1.628,1.955,1.955,0,0,0-1.953-1.953,1.628,1.628,0,0,1,0-3.255,1.955,1.955,0,0,0,1.953-1.953,1.628,1.628,0,0,1,3.255,0,1.955,1.955,0,0,0,1.953,1.953,1.628,1.628,0,0,1,0,3.255,1.955,1.955,0,0,0-1.953,1.953A1.628,1.628,0,0,1,429,153.38Z" transform="translate(-299.714 -105.372)"/><path class="c" d="M415,200.1a1.628,1.628,0,0,1-1.628-1.628,1.955,1.955,0,0,0-1.953-1.953,1.628,1.628,0,0,1,0-3.255,1.955,1.955,0,0,0,1.953-1.953,1.628,1.628,0,0,1,3.255,0,1.955,1.955,0,0,0,1.953,1.953,1.628,1.628,0,1,1,0,3.255,1.955,1.955,0,0,0-1.953,1.953A1.628,1.628,0,0,1,415,200.1Z" transform="translate(-290.271 -136.881)"/><path class="e" d="M47.835,305.974a1.628,1.628,0,0,1-1.628-1.628,1.955,1.955,0,0,0-1.953-1.953,1.628,1.628,0,0,1,0-3.255,1.955,1.955,0,0,0,1.953-1.953,1.628,1.628,0,1,1,3.255,0,1.955,1.955,0,0,0,1.953,1.953,1.628,1.628,0,0,1,0,3.255,1.955,1.955,0,0,0-1.953,1.953A1.628,1.628,0,0,1,47.835,305.974Z" transform="translate(-42.627 -208.293)"/><path class="c" d="M77.731,335.623A1.628,1.628,0,0,1,76.1,334a1.955,1.955,0,0,0-1.953-1.953,1.628,1.628,0,0,1,0-3.255,1.955,1.955,0,0,0,1.953-1.953,1.628,1.628,0,1,1,3.255,0,1.955,1.955,0,0,0,1.953,1.953,1.628,1.628,0,1,1,0,3.255A1.955,1.955,0,0,0,79.359,334,1.628,1.628,0,0,1,77.731,335.623Z" transform="translate(-62.791 -228.291)"/></g></svg>